Coordinates
version=1
nRows=8
nColumns=36
inDegrees=yes

Units are S.I. units (second, meters, Newtons, ...)
If the header above contains a line with 'inDegrees', this indicates whether rotational values are in degrees (yes) or radians (no).

endheader
time	pelvis_tilt	pelvis_list	pelvis_rotation	pelvis_tx	pelvis_ty	pelvis_tz	hip_flexion_r	hip_adduction_r	hip_rotation_r	knee_angle_r	knee_angle_r_beta	ankle_angle_r	subtalar_angle_r	mtp_angle_r	hip_flexion_l	hip_adduction_l	hip_rotation_l	knee_angle_l	knee_angle_l_beta	ankle_angle_l	subtalar_angle_l	mtp_angle_l	lumbar_extension	lumbar_bending	lumbar_rotation	arm_flex_r	arm_add_r	arm_rot_r	elbow_flex_r	pro_sup_r	arm_flex_l	arm_add_l	arm_rot_l	elbow_flex_l	pro_sup_l
      8.15000000	      0.12901559	     -2.28936717	      2.79756692	     -0.02121481	      0.91230350	     -0.02957815	     75.39375224	      3.76848865	      3.00630013	     44.27852224	      0.77280600	    -13.80847745	    -16.44704760	     -7.49999987	     12.02873808	      7.99840512	      5.09043496	     14.11166421	      0.24629500	      8.37469576	    -16.36634371	     -7.49999987	    -10.71142756	     13.70656903	      5.26900846	     66.33754504	     -5.71982587	     64.88066518	    113.11790411	     82.18724477	     75.99430877	      0.08432920	     71.87315075	    111.53897751	     68.48065121
      8.16666670	     -0.05480695	     -2.30935949	      2.51386171	     -0.02277747	      0.90759417	     -0.02832724	     75.54150972	      3.82417329	      3.06105856	     44.18305957	      0.77113986	    -13.28000728	    -15.98394465	     -7.49999987	     13.59669133	      7.85118422	      4.23289009	     16.62538814	      0.29016776	      9.69596544	    -16.53863759	     -7.49999987	    -11.10065109	     12.69634737	      5.82337564	     66.52691094	     -6.12791213	     64.02955178	    114.35708488	     84.20371289	     77.13928821	      1.18890903	     72.54981323	    110.53169196	     68.69502783
      8.18333330	     -0.33448505	     -2.27458912	      2.26374572	     -0.02464910	      0.90615925	     -0.02702121	     75.45828478	      3.85474574	      3.07217311	     43.35111026	      0.75661961	    -12.57234377	    -14.79131897	     -7.49999987	     15.67549479	      7.66208663	      3.02401101	     19.93521629	      0.34793516	     11.12714889	    -16.07119339	     -7.49999987	    -11.45429465	     11.97246399	      5.68054699	     67.05344602	     -5.74693285	     64.35291116	    113.90528360	     82.51697376	     77.79789446	      1.33733483	     72.57691766	    110.02862988	     68.02855663
      8.20000000	     -0.75803536	     -2.56378127	      2.19318090	     -0.02353672	      0.90338818	     -0.02520798	     75.08281806	      4.01908336	      3.15070661	     42.06379081	      0.73415165	    -12.50982502	    -14.84802815	     -7.49999987	     17.43374663	      7.01935951	      2.13306102	     22.67159696	      0.39569401	     13.08849669	    -14.81183341	     -7.49999987	    -11.77691117	     11.45978517	      5.86756571	     67.50590286	     -5.84924235	     65.26984336	    114.04815228	     84.42774620	     78.42289012	      1.65180381	     73.24186794	    110.34012769	     67.89104806
      8.21666670	     -1.26949455	     -2.82861352	      2.06471711	     -0.02392424	      0.89585530	     -0.02420513	     75.12130487	      4.03528562	      3.10191047	     41.30847201	      0.72096885	    -12.25146902	    -14.47527265	     -7.49999987	     19.40547681	      6.59873938	      1.37655539	     25.22226037	      0.44021149	     14.53221442	    -14.64445234	     -7.49999987	    -11.86049460	     10.95350683	      5.70318589	     68.21621683	     -5.68463895	     65.98142612	    113.69408800	     82.83591321	     79.00669044	      1.62748954	     73.46019850	    110.52548829	     67.30609452
      8.23333330	     -1.70173750	     -3.10318789	      1.89894045	     -0.02473804	      0.89168281	     -0.02205082	     74.84453948	      4.14519981	      2.81082549	     40.17688809	      0.70121898	    -11.95682450	    -14.22225999	     -7.49999987	     21.02406872	      6.02068043	      0.46204962	     27.57369162	      0.48125171	     15.93167020	    -14.27346145	     -7.49999987	    -12.17320532	     10.42821002	      5.60034012	     68.83119890	     -5.23832503	     66.41937131	    113.17074293	     81.37241661	     79.36027737	      1.44823901	     73.53692038	    110.42527162	     66.75329404
      8.25000000	     -2.13918103	     -3.53930778	      1.75268780	     -0.02451226	      0.88432693	     -0.02096439	     74.73793812	      4.26275499	      2.30414017	     39.43558663	      0.68828083	    -11.49512812	    -13.90742080	     -7.49999987	     22.80115123	      5.15445901	     -0.39120512	     30.77951807	      0.53720393	     18.47121742	    -12.84465757	     -7.49999987	    -12.40576566	     10.01697691	      5.18102822	     69.65815693	     -4.22293106	     66.87082042	    113.23169982	     87.33773449	     80.09577790	      1.40393726	     73.62517992	    109.87935614	     67.47836257
      8.26666670	     -2.57676703	     -3.97174094	      1.31263976	     -0.02488038	      0.87779145	     -0.02015718	     74.98796604	      4.54579066	      1.95447302	     39.46338299	      0.68876597	    -11.18344034	    -13.68874091	     -7.49999987	     24.86315682	      4.21946749	     -1.52219356	     33.71683792	      0.58846984	     19.95354170	    -12.05695211	     -7.49999987	    -12.76711044	      9.57853152	      5.07146710	     70.58033744	     -3.86327726	     67.15549716	    113.02763382	     84.71263962	     80.69689479	      1.39243837	     73.50122685	    109.76817304	     66.79624495
